<svg xmlns="http://www.w3.org/2000/svg" viewBox="0 0 64 44">
  <defs>
    <filter id="glow" x="-40%" y="-40%" width="180%" height="180%">
      <feGaussianBlur stdDeviation="1.7" result="b"/>
      <feMerge><feMergeNode in="b"/><feMergeNode in="SourceGraphic"/></feMerge>
    </filter>
    <linearGradient id="featherFill" x1="0" y1="0" x2="1" y2="1">
      <stop offset="0" stop-color="#3a0a31" stop-opacity=".95"/>
      <stop offset=".55" stop-color="#62104f" stop-opacity=".75"/>
      <stop offset="1" stop-color="#22071e" stop-opacity=".92"/>
    </linearGradient>
  </defs>
  <g filter="url(#glow)" stroke-linecap="round" stroke-linejoin="round">
    <path d="M61 17C50 5 34 2 10 7c17 2 33 7 48 15 2-1 3-3 3-5Z" fill="url(#featherFill)" stroke="#ff5bd1" stroke-width="2.7"/>
    <path d="M57 22C45 12 29 10 7 15c17 2 32 7 47 14 2-2 3-4 3-7Z" fill="url(#featherFill)" stroke="#ff5bd1" stroke-width="2.7"/>
    <path d="M52 28C41 20 27 19 9 23c15 2 29 6 41 12 2-2 3-4 2-7Z" fill="url(#featherFill)" stroke="#ff5bd1" stroke-width="2.5"/>
    <path d="M46 33C37 27 26 27 15 31c11 1 21 4 30 8 1-2 2-4 1-6Z" fill="url(#featherFill)" stroke="#ff5bd1" stroke-width="2.3"/>
    <path d="M57 17c-10-7-20-9-31-9M53 22c-9-5-19-6-30-5M48 28c-8-4-16-4-25-2M42 33c-6-3-12-3-18-1" fill="none" stroke="#ffd7f4" stroke-width="1.1" opacity=".95"/>
    <circle cx="17" cy="7" r="1.5" fill="#ffd1f1"/>
    <circle cx="22" cy="4" r="1" fill="#ff8bdd"/>
  </g>
</svg>