<svg xmlns="http://www.w3.org/2000/svg" viewBox="0 0 280 260"><defs><radialGradient id="r"><stop stop-color="#ff5a70"/><stop offset=".58" stop-color="#d20b2e"/><stop offset="1" stop-color="#700014"/></radialGradient><linearGradient id="p" x1="0" x2="1"><stop stop-color="#ff9ecb"/><stop offset="1" stop-color="#f15a9e"/></linearGradient></defs><g fill="url(#r)"><circle cx="58" cy="96" r="26"/><circle cx="86" cy="72" r="28"/><circle cx="118" cy="62" r="30"/><circle cx="151" cy="63" r="30"/><circle cx="184" cy="72" r="28"/><circle cx="214" cy="96" r="27"/><circle cx="73" cy="125" r="29"/><circle cx="107" cy="116" r="31"/><circle cx="141" cy="111" r="33"/><circle cx="177" cy="117" r="31"/><circle cx="207" cy="129" r="28"/></g><path d="M47 142c28 15 59 23 93 23s65-8 93-23l-29 83c-43 18-86 18-128 0z" fill="url(#p)"/><path d="M65 148c34 18 52 25 75 25 27 0 47-7 78-25l-10 29c-45 17-91 17-136 0z" fill="#ffd3e6" opacity=".85"/><path d="M139 203c-26-24-51-22-64-8 12 16 34 19 64 9 31 10 53 7 65-9-14-14-39-16-65 8z" fill="#f42d62"/><path d="M134 207h11v39h-11z" fill="#c1133b"/></svg>